<svg width="30" height="26" viewBox="0 0 30 26" fill="none" xmlns="http://www.w3.org/2000/svg">
<circle cx="12" cy="6" r="6" fill="#6699D2"/>
<path d="M13.005 13.53C12.675 13.515 12.345 13.5 12 13.5C8.37 13.5 4.98 14.505 2.085 16.23C0.765 17.01 0 18.48 0 20.025V24H13.89C12.705 22.305 12 20.235 12 18C12 16.395 12.375 14.895 13.005 13.53Z" fill="#6699D2"/>
<path fill-rule="evenodd" clip-rule="evenodd" d="M28.0405 17.0944C28.0836 17.3951 28.1249 17.6838 28.1249 18C28.1249 18.3162 28.0836 18.6049 28.0405 18.9056C28.0386 18.9187 28.0368 18.9319 28.0349 18.945L29.7449 20.46L28.2449 23.055L26.0699 22.32C25.5899 22.725 25.0499 23.04 24.4499 23.265L23.9999 25.5H20.9999L20.5499 23.265C19.9499 23.04 19.4099 22.725 18.9299 22.32L16.7549 23.055L15.2549 20.46L16.9649 18.945C16.963 18.9319 16.9611 18.9187 16.9593 18.9056C16.9162 18.6049 16.8749 18.3162 16.8749 18C16.8749 17.6838 16.9162 17.3951 16.9593 17.0944C16.9611 17.0813 16.963 17.0681 16.9649 17.055L15.2549 15.54L16.7549 12.945L18.9299 13.68C19.4099 13.275 19.9499 12.96 20.5499 12.735L20.9999 10.5H23.9999L24.4499 12.735C25.0499 12.96 25.5899 13.275 26.0699 13.68L28.2449 12.945L29.7449 15.54L28.0349 17.055C28.0368 17.0681 28.0386 17.0813 28.0405 17.0944ZM19.4999 18C19.4999 19.65 20.8499 21 22.4999 21C24.1499 21 25.4999 19.65 25.4999 18C25.4999 16.35 24.1499 15 22.4999 15C20.8499 15 19.4999 16.35 19.4999 18Z" fill="white"/>
</svg>
